# xmcd CD database file
#
# Track frame offsets:
#	150
#	21722
#	37142
#	66455
#	78817
#	101937
#	128217
#	144587
#	168550
#	185270
#	192682
#	208280
#	217155
#	238685
#	251917
#	256775
#
# Disc length: 3590 seconds
#
# Revision: 0
# Processed by: cddbd v1.5PL3 Copyright (c) Steve Scherf et al.
# Submitted via: CDex 1.50beta10
#
DISCID=080e0410
DTITLE=Lighnin' Hopkins - Chicken Minnie
DYEAR=1996
DGENRE=Blues
TTITLE0=Drinkin' In The Blues
TTITLE1=Ball Of Twine
TTITLE2=Everybody's Blues
TTITLE3=Right On The Shore
TTITLE4=Chain Gang Blues
TTITLE5=Blowin' The Fuses
TTITLE6=Back In My Mother's Arms
TTITLE7=Chicken Minnie
TTITLE8=Bottle It Up And Go
TTITLE9=Long Time Ago
TTITLE10=Prison Blues Come Down On Me
TTITLE11=Bunion Blues
TTITLE12=Mama And Papa Hopkins
TTITLE13=Trouble In Mind
TTITLE14='Til The Gin Runs Out
TTITLE15=Saints Go Marchin' In (Arr. Hopkins)
EXTD=YEAR: 1996
EXTT0=
EXTT1=
EXTT2=
EXTT3=
EXTT4=
EXTT5=
EXTT6=
EXTT7=
EXTT8=
EXTT9=
EXTT10=
EXTT11=
EXTT12=
EXTT13=
EXTT14=
EXTT15=
PLAYORDER=
